# xmcd
#
# Track frame offsets: 
#        150
#        21447
#        35162
#        53136
#        70802
#        104342
#        125822
#        148076
#        162759
#        182399
#        204788
#
# Disc length: 3042 seconds
#
# Revision: 0
# Processed by: cddbd v1.5.2PL0 Copyright (c) Steve Scherf et al.
# Submitted via: ExactAudioCopy v0.99pb5
#
DISCID=9b0be00b
DTITLE=胡德夫 Ara Kimbo - 大武山的藍調 Sky High Mountain Blues
DYEAR=2011
DGENRE=Blues
TTITLE0=Oh my, what a shame 噢，是遺憾…
TTITLE1=Drifting on my land 帶著血管的漂流木
TTITLE2=Eagle 老鷹之歌
TTITLE3=Were you there 你在那裡嗎？
TTITLE4=Sky High Mountain Blues 大武山藍調
TTITLE5=Lai sue 來甦
TTITLE6=Can't find my way home 找不到我回家的路
TTITLE7=Put your hand in hand 將你的手託付於祂
TTITLE8=Hallelujah 哈雷路亞
TTITLE9=Power in me 內在的力量
TTITLE10=臍帶 The umbilical cord
EXTD=
EXTT0=
EXTT1=
EXTT2=
EXTT3=
EXTT4=
EXTT5=
EXTT6=
EXTT7=
EXTT8=
EXTT9=
EXTT10=
PLAYORDER=
